<?xml version="1.0" encoding="UTF-8"?>
<svg width="69px" height="24px" viewBox="0 0 69 24" version="1.1" xmlns="http://www.w3.org/2000/svg" xmlns:xlink="http://www.w3.org/1999/xlink">
    <title>Powered by Betcloud</title>
    <defs>
        <linearGradient x1="25.8208525%" y1="40.7836854%" x2="70.3512044%" y2="73.017849%" id="linearGradient-1">
            <stop stop-color="#46C8F5" offset="0%"></stop>
            <stop stop-color="#0061D9" offset="100%"></stop>
        </linearGradient>
        <path d="M7.68097436,0 C6.69876876,0 5.72700521,0.385261505 5.00933161,1.11061593 L4.99714921,1.12367939 C4.2229145,1.91545821 3.85809527,2.96651359 3.90116874,4.00251278 C3.86201104,4.0014057 3.8226358,3.99963439 3.78369565,3.99963439 C2.80105496,3.99963439 1.82972649,4.38489589 1.11183535,5.1100289 L1.09965296,5.12331378 C-0.368760735,6.62472657 -0.365497594,9.05940216 1.10313364,10.5541725 C1.81580376,11.2795269 2.7636376,11.6791804 3.77216588,11.6791804 C4.6862806,11.6791804 5.55057802,11.3514867 6.23496757,10.7501245 L4.79178884,9.28103823 C4.49680085,9.49758177 4.14351139,9.61426729 3.77216588,9.61426729 C3.30618927,9.61426729 2.8674055,9.42960747 2.53717558,9.09416426 C1.86692631,8.41220711 1.85735442,7.29849138 2.51302833,6.60524209 C2.52064233,6.5963855 2.52869141,6.58775033 2.53695804,6.57933657 C2.54522466,6.5707014 2.55370883,6.56273047 2.56262808,6.55498096 C3.24397204,5.88763718 4.33777708,5.89737942 5.00759127,6.57933657 L8.91226644,10.5541725 C9.62384883,11.2781984 10.5716827,11.6769662 11.5815162,11.6769662 C12.5915673,11.6769662 13.5398362,11.2777556 14.2516362,10.5535083 C15.723313,9.05541669 15.7230955,6.61764131 14.250766,5.1191069 C13.5744255,4.43072873 12.676409,4.03196093 11.7216138,3.99631317 L11.4588221,3.98634951 L11.4494678,3.71910201 C11.415096,2.74819874 11.0233015,1.83419903 10.3463084,1.14582086 C10.3408698,1.1405069 10.3354312,1.13541437 10.3299927,1.13010042 L10.3395645,1.12035817 C10.0075943,0.782036573 9.62319621,0.514346251 9.19681238,0.323265401 C8.71190954,0.105614792 8.19481038,0 7.68097436,0 Z M7.67684105,2.08484042 C8.1430352,2.08484042 8.58160143,2.26950025 8.91204889,2.60494345 L8.91204889,2.60494345 C9.24206127,2.94171515 9.42349194,3.38830852 9.42349194,3.86257871 L9.42349194,3.86257871 C9.42349194,4.23898363 9.3088469,4.59789679 9.0967427,4.89791366 L9.0967427,4.89791366 L7.66009025,6.35969323 L6.45077,5.12862773 L6.43467183,5.09452987 C5.76464011,4.41279414 5.75485068,3.29907841 6.41052459,2.6056077 L6.41052459,2.6056077 C6.41813858,2.59675111 6.42618767,2.58811594 6.43445429,2.57970218 L6.43445429,2.57970218 C6.44250337,2.57128843 6.45120509,2.56309608 6.4599068,2.55534657 L6.4599068,2.55534657 C6.51777317,2.49888583 6.57846761,2.44773905 6.64155501,2.40102055 L6.64155501,2.40102055 L6.65808826,2.41806948 C6.95307625,2.20152595 7.30593063,2.08484042 7.67684105,2.08484042 L7.67684105,2.08484042 Z M10.3463084,9.09394284 L9.12959166,7.85557066 L10.5775563,6.38183469 C10.8697163,6.17237643 11.2171321,6.05879071 11.5815162,6.05879071 L11.5815162,6.05879071 C12.048363,6.05879071 12.4871468,6.24389336 12.8169416,6.57911516 L12.8169416,6.57911516 C13.4982856,7.27258587 13.4982856,8.40069355 12.8169416,9.09394284 L12.8169416,9.09394284 C12.4764872,9.4406782 12.0290017,9.61404588 11.5815162,9.61404588 L11.5815162,9.61404588 C11.1340307,9.61404588 10.6867628,9.4406782 10.3463084,9.09394284 L10.3463084,9.09394284 Z" id="path-2"></path>
    </defs>
    <g id="Symbols" stroke="none" stroke-width="1" fill="none" fill-rule="evenodd">
        <g id="Powered-by-Betcloud" transform="translate(0.000000, 0.029190)">
            <text id="Powered-by" font-family="GothamLight" font-size="9" font-style="italic" font-weight="500" line-spacing="3" letter-spacing="-0.112500004" fill="#000000">
                <tspan x="0.192000045" y="7">POWERED BY</tspan>
            </text>
            <g id="BetCloudLogo-Copy-2" transform="translate(0.000000, 12.000000)">
                <g id="Group-3">
                    <mask id="mask-3" fill="white">
                        <use xlink:href="#path-2"></use>
                    </mask>
                    <use id="Clip-2" fill="url(#linearGradient-1)" xlink:href="#path-2"></use>
                </g>
                <g id="Group-22" transform="translate(16.740963, 0.303139)" fill="#000000">
                    <path d="M51.0763815,9.6265558 C51.05615,9.60020746 51.0272168,9.57828741 50.9891468,9.56079565 C50.9510769,9.54330389 50.9112665,9.53444731 50.8694983,9.53444731 C50.8264248,9.53444731 50.7881373,9.54241823 50.7544182,9.5585815 C50.7204815,9.57474477 50.692636,9.596222 50.6702291,9.62323458 C50.6480398,9.65024717 50.6310714,9.68146664 50.6197592,9.71645016 C50.6082295,9.75143367 50.6023558,9.78730285 50.6023558,9.82383626 C50.6023558,9.86191959 50.608447,9.89889583 50.6208469,9.93454359 C50.6330293,9.97041277 50.6508678,10.0018537 50.67458,10.0288662 C50.6982922,10.0558788 50.7276604,10.0777989 50.7629024,10.0946264 C50.7981443,10.1114539 50.8386072,10.1198677 50.8847263,10.1198677 C50.9219261,10.1198677 50.9589084,10.112561 50.9956731,10.0979476 C51.0322203,10.0833342 51.0620237,10.0629641 51.0850832,10.0366158 L51.2099528,10.1856278 C51.1725354,10.2281394 51.1238058,10.2606874 51.0635465,10.2832717 C51.0030696,10.305856 50.9384594,10.3171481 50.8694983,10.3171481 C50.8005373,10.3171481 50.7363621,10.3065202 50.6767554,10.2854858 C50.6171487,10.26423 50.5647209,10.2327891 50.519472,10.1911632 C50.4742231,10.1495372 50.4387636,10.0983904 50.412876,10.0377228 C50.3869885,9.97705521 50.3741534,9.90730959 50.3741534,9.82826456 C50.3741534,9.75231933 50.3869885,9.68345937 50.412876,9.62212751 C50.4387636,9.56079565 50.4742231,9.50920604 50.519472,9.46758008 C50.5647209,9.42595412 50.6175838,9.393849 50.6778431,9.37104329 C50.7381025,9.34845899 50.8020601,9.33716685 50.8694983,9.33716685 C50.9384594,9.33716685 51.0035047,9.35023031 51.0644166,9.37657866 C51.1255462,9.402927 51.1747108,9.44012466 51.2121282,9.48839306 L51.0763815,9.6265558 Z M50.1413827,9.82383626 C50.1413827,9.92037306 50.1596563,10.0109317 50.196421,10.0957335 C50.2329682,10.1805353 50.2825679,10.2547092 50.3450027,10.3182552 C50.4074375,10.3818012 50.4807494,10.4320623 50.5647209,10.4685957 C50.6486924,10.5051292 50.7381025,10.5232852 50.8329511,10.5232852 C50.9277998,10.5232852 51.0167748,10.5051292 51.1000937,10.4685957 C51.1834125,10.4320623 51.2562894,10.3818012 51.3187241,10.3182552 C51.3811589,10.2547092 51.4303236,10.1805353 51.4662181,10.0957335 C51.5021127,10.0109317 51.5201687,9.92037306 51.5201687,9.82383626 C51.5201687,9.72729947 51.5021127,9.63651946 51.4662181,9.55083199 C51.4303236,9.46536593 51.3811589,9.39074919 51.3187241,9.32720319 C51.2562894,9.26365718 51.1834125,9.21317464 51.1000937,9.17597697 C51.0167748,9.13877931 50.9277998,9.11995907 50.8329511,9.11995907 C50.7381025,9.11995907 50.6486924,9.13877931 50.5647209,9.17597697 C50.4807494,9.21317464 50.4074375,9.26365718 50.3450027,9.32720319 C50.2825679,9.39074919 50.2329682,9.46536593 50.196421,9.55083199 C50.1596563,9.63651946 50.1413827,9.72729947 50.1413827,9.82383626 L50.1413827,9.82383626 Z M50.0121623,9.82383626 C50.0121623,9.70847923 50.033699,9.60065029 50.0767725,9.50057086 C50.1198459,9.40049144 50.1783649,9.31303265 50.2523295,9.23841591 C50.326294,9.16379917 50.4130936,9.10512428 50.5129457,9.06194843 C50.6127979,9.01877257 50.7193938,8.99729535 50.8329511,8.99729535 C50.9449857,8.99729535 51.0504939,9.01877257 51.1496934,9.06194843 C51.2486754,9.10512428 51.3352574,9.16379917 51.4092219,9.23841591 C51.4831865,9.31303265 51.5417055,9.40049144 51.5847789,9.50057086 C51.6278524,9.60065029 51.6493891,9.70847923 51.6493891,9.82383626 C51.6493891,9.93786481 51.6278524,10.0450295 51.5847789,10.1451089 C51.5417055,10.2451884 51.4831865,10.3326471 51.4092219,10.4070425 C51.3352574,10.4816592 51.2486754,10.5401127 51.1496934,10.5826243 C51.0504939,10.6249145 50.9449857,10.6461703 50.8329511,10.6461703 C50.7193938,10.6461703 50.6127979,10.6249145 50.5129457,10.5826243 C50.4130936,10.5401127 50.326294,10.4816592 50.2523295,10.4070425 C50.1783649,10.3326471 50.1198459,10.2451884 50.0767725,10.1451089 C50.033699,10.0450295 50.0121623,9.93786481 50.0121623,9.82383626 L50.0121623,9.82383626 Z" id="Fill-4"></path>
                    <path d="M5.25704481,6.72259185 C5.25704481,6.30234683 5.13761383,5.95007611 4.89918695,5.66511545 C4.66054253,5.38059761 4.30747062,5.23800657 3.83975366,5.23800657 C3.56456206,5.23800657 3.30764405,5.2988956 3.06921718,5.42000942 C2.83057276,5.54156607 2.62651764,5.70497008 2.45683428,5.91022147 C2.28693338,6.11569428 2.15162177,6.35393645 2.05089947,6.62450516 C1.94974208,6.8955167 1.8994897,7.18025595 1.8994897,7.47894433 C1.8994897,7.90848876 2.02783994,8.2609809 2.28475795,8.53619932 C2.54145842,8.81186057 2.89474787,8.94935907 3.34440878,8.94935907 C3.63787397,8.94935907 3.90153581,8.89112702 4.13561183,8.77444149 C4.36947031,8.65775597 4.56895703,8.49900166 4.73407199,8.29817856 C4.89918695,8.09757688 5.02753719,7.86177027 5.11934023,7.59098014 C5.21092574,7.32019002 5.25704481,7.03080106 5.25704481,6.72259185 L5.25704481,6.72259185 Z M2.42246252,4.50977376 C2.6608894,4.18296572 2.97502116,3.92147501 3.36507534,3.72552304 C3.75469444,3.52934965 4.16998359,3.43126296 4.61029015,3.43126296 C5.05059672,3.43126296 5.44739473,3.50610111 5.80068419,3.65533459 C6.15353856,3.80478949 6.4517897,4.01247644 6.69500251,4.27861686 C6.93799779,4.54475728 7.12377931,4.8622659 7.25234709,5.2309213 C7.38069732,5.60001954 7.44487244,5.99900875 7.44487244,6.42855319 C7.44487244,7.02615135 7.35089396,7.588766 7.16293701,8.11617571 C6.97476251,8.64380684 6.71088313,9.10346367 6.37173396,9.49558903 C6.03214969,9.88771439 5.63317626,10.1959236 5.17437855,10.4199952 C4.71558085,10.6440669 4.21131671,10.751453 3.66093351,10.7561027 C1.00647664,10.7789084 -0.227643495,9.46503381 0.034495542,6.79765142 C0.25899968,5.23534959 0.991248642,0 0.991248642,0 L3.20670421,0 L2.39483459,4.50977376 L2.42246252,4.50977376 Z" id="Fill-6"></path>
                    <path d="M13.0041344,6.33042221 C13.0132712,6.28370372 13.0178396,6.23720664 13.0178396,6.19026673 L13.0178396,6.05033267 C13.0178396,5.74212346 12.9099384,5.48550388 12.694571,5.28003107 C12.4787686,5.07477968 12.1692053,4.97182187 11.7656634,4.97182187 C11.5180997,4.97182187 11.2955535,5.01632621 11.0982422,5.10489208 C10.9009309,5.19390077 10.7288546,5.30350103 10.5822308,5.43413567 C10.4353894,5.56499174 10.3161759,5.70957551 10.2245904,5.86832982 C10.1327874,6.02708413 10.0683947,6.18118873 10.0318475,6.33042221 L13.0041344,6.33042221 Z M9.88043778,7.70297168 C9.87130098,7.74039076 9.86673258,7.78245954 9.86673258,7.82895662 C9.86673258,8.02513001 9.91024114,8.20004759 9.99747579,8.35415219 C10.0844929,8.50825679 10.1991379,8.63911285 10.3414109,8.74627755 C10.4836839,8.85388507 10.6442304,8.93536567 10.8230506,8.99138357 C11.0020883,9.04740148 11.1876523,9.07552114 11.3803952,9.07552114 C11.7288987,9.07552114 12.0360691,9.01020382 12.3023414,8.87934776 C12.5683962,8.74871311 12.8068231,8.57135997 13.0178396,8.34728833 L14.4077204,9.45369738 C13.9674138,9.9297389 13.4764198,10.2729316 12.9353909,10.4830541 C12.3939269,10.6931766 11.8115649,10.7981272 11.1876523,10.7981272 C10.710581,10.7981272 10.2678814,10.7303743 9.85977121,10.5950899 C9.45166098,10.4598056 9.09619609,10.2589825 8.79337656,9.99284207 C8.49077457,9.72670165 8.25213015,9.39767947 8.07787839,9.0053327 C7.90362663,8.61320734 7.81639198,8.16506407 7.81639198,7.66090289 C7.81639198,7.06352614 7.9197248,6.50556121 8.12595534,5.98722949 C8.33240343,5.46911919 8.61673183,5.01876178 8.97915808,4.63571442 C9.34158434,4.25310989 9.77492953,3.95198595 10.2796288,3.73234261 C10.7838929,3.5131421 11.339062,3.40332043 11.9444836,3.40332043 C12.3939269,3.40332043 12.8046477,3.46863775 13.1762107,3.5992724 C13.5477738,3.73034988 13.8662564,3.91921658 14.1325287,4.16653676 C14.398366,4.41407834 14.6048141,4.71985199 14.7516555,5.08385769 C14.8982793,5.4480848 14.9718088,5.86832982 14.9718088,6.34437133 C14.9718088,6.51242506 14.9557106,6.72498313 14.9237318,6.98160272 C14.8915355,7.23866514 14.8480269,7.47890004 14.7929886,7.70297168 L9.88043778,7.70297168 Z" id="Fill-8"></path>
                    <path d="M16.3878381,1.76467483 L18.5345502,1.76467483 L18.2180255,3.61348722 L19.6766497,3.61348722 L19.3738302,5.29402448 L17.9565391,5.29402448 L17.4611942,8.03535936 C17.4518398,8.10111952 17.445096,8.16909382 17.4405276,8.23928226 C17.4357417,8.30947071 17.4335662,8.36814559 17.4335662,8.4150855 C17.4335662,8.64934221 17.4977414,8.80876076 17.6263091,8.89289833 C17.7546594,8.97747873 17.9289111,9.01954752 18.1492819,9.01954752 C18.2593586,9.01954752 18.3670423,9.0102481 18.4725505,8.99142786 C18.5778412,8.97282903 18.6720372,8.95423019 18.7547035,8.93540995 L18.5482554,10.5459802 C18.4196876,10.6019981 18.238692,10.6511521 18.004616,10.6929995 C17.7707575,10.7350683 17.5482113,10.7561027 17.3374123,10.7561027 C16.6767349,10.7561027 16.1561551,10.6201541 15.7754553,10.3489211 C15.3947554,10.0774668 15.2044055,9.64681525 15.2044055,9.05718801 C15.2044055,8.94493078 15.2113668,8.81606745 15.225072,8.67104085 C15.2387772,8.52601425 15.2594438,8.3878515 15.2870717,8.25677402 L16.3878381,1.76467483 Z" id="Fill-10"></path>
                    <path d="M24.6853762,5.77022098 C24.5659452,5.5649696 24.3825567,5.3898306 24.134993,5.24502542 C23.8872118,5.10044164 23.6165886,5.02803905 23.3231234,5.02803905 C22.9835391,5.02803905 22.6694074,5.0982275 22.3805106,5.23860439 C22.0916138,5.3792027 21.8438326,5.57139062 21.6373845,5.81494675 C21.4309364,6.05850287 21.2679968,6.33947807 21.149001,6.65787235 C21.02957,6.97648804 20.9699633,7.30883144 20.9699633,7.65534538 C20.9699633,7.88938068 21.0021596,8.11190241 21.0663347,8.32268916 C21.1305098,8.53369733 21.2314497,8.72101413 21.3691542,8.88486098 C21.5066413,9.04870783 21.680893,9.17978531 21.8919095,9.27809342 C22.102926,9.37662294 22.3550581,9.42555558 22.6487408,9.42555558 C23.061637,9.42555558 23.3940423,9.3533744 23.6463919,9.20856921 C23.8987416,9.06398544 24.1302071,8.88419674 24.3414411,8.66942452 L25.2633873,9.61973623 C24.9146663,9.97089988 24.5202612,10.2503252 24.0799547,10.4582335 C23.6396481,10.6661419 23.1303805,10.7702068 22.5525869,10.7702068 C22.0752981,10.7702068 21.6419529,10.7000184 21.2521162,10.5600843 C20.862062,10.4199288 20.5272637,10.2217627 20.2477213,9.96492169 C19.9677437,9.70808068 19.7521588,9.40252845 19.6009666,9.04737934 C19.4495568,8.69267306 19.373852,8.29589799 19.373852,7.85705414 C19.373852,7.3156953 19.4702234,6.79271388 19.6627488,6.28833128 C19.8554916,5.78417011 20.1258973,5.3384624 20.4746184,4.95098675 C20.8231219,4.5635111 21.2473303,4.25552331 21.7474611,4.02658055 C22.2473744,3.79785921 22.8001506,3.68338783 23.4055721,3.68338783 C23.9011345,3.68338783 24.3710269,3.77438925 24.8161194,3.95661352 C25.2609944,4.13861637 25.6025365,4.42579118 25.8411809,4.81791654 L24.6853762,5.77022098 Z" id="Fill-12"></path>
                    <polygon id="Fill-14" points="25.4824964 10.5880711 27.3126837 2.21414659e-05 28.936423 2.21414659e-05 27.0925305 10.5880711"></polygon>
                    <path d="M33.8648979,6.7700853 C33.8648979,6.26437422 33.7134882,5.84745042 33.4108862,5.51975672 C33.1080666,5.19184161 32.6951705,5.02799477 32.1724152,5.02799477 C31.8236941,5.02799477 31.5095624,5.10061877 31.2298024,5.24564538 C30.9498248,5.39089339 30.7113979,5.58529546 30.5143042,5.82885159 C30.3167754,6.07240771 30.1634077,6.35338291 30.0533311,6.67177719 C29.9432544,6.99039288 29.8882161,7.32760741 29.8882161,7.68342076 C29.8882161,8.18935326 30.0348399,8.60605564 30.3285227,8.93397075 C30.6219879,9.26166445 31.0346665,9.42573271 31.5669937,9.42573271 C31.9154972,9.42573271 32.2320219,9.35532285 32.5163503,9.21494595 C32.8006787,9.07434765 33.0414985,8.88238114 33.2388098,8.63882501 C33.4359036,8.39526889 33.5897063,8.11185813 33.699783,7.78881414 C33.8098596,7.46577015 33.8648979,7.12612007 33.8648979,6.7700853 M31.4843274,10.7701625 C31.0255297,10.7701625 30.6013213,10.7001955 30.2114847,10.56004 C29.8214305,10.4201059 29.4842392,10.2192828 29.2001283,9.95779213 C28.9155824,9.69652284 28.6930361,9.38853505 28.5327071,9.03338593 C28.3721605,8.67867965 28.2918873,8.28190458 28.2918873,7.84306073 C28.2918873,7.29218106 28.3858657,6.76698549 28.5740402,6.26747402 C28.7619972,5.76796255 29.0302274,5.32690456 29.3789485,4.9438572 C29.727452,4.56125267 30.1473095,4.25547902 30.638086,4.02653627 C31.128645,3.79781493 31.6770703,3.68334355 32.2824918,3.68334355 C32.7502088,3.68334355 33.1789856,3.75353199 33.5690398,3.89346606 C33.9588764,4.03362154 34.2960677,4.23200907 34.5803961,4.48885007 C34.8647245,4.74569108 35.0872707,5.05367887 35.2478173,5.41303486 C35.4081463,5.77261226 35.4886372,6.16717318 35.4886372,6.59649621 C35.4886372,7.15667529 35.3944411,7.68895613 35.2064842,8.19311731 C35.0183097,8.69727848 34.7500795,9.14099346 34.4015759,9.52359799 C34.0528549,9.90664535 33.6310394,10.2099834 33.1356946,10.4340551 C32.6401321,10.6581267 32.0897489,10.7701625 31.4843274,10.7701625" id="Fill-16"></path>
                    <path d="M37.9547237,10.7701182 C37.5881642,10.7530693 37.2688114,10.7141003 36.9984057,10.6020645 C36.7277825,10.4900287 36.5030608,10.3407952 36.3240231,10.1539212 C36.145203,9.96726868 36.0120668,9.74563261 35.9250497,9.48857019 C35.8378151,9.2319506 35.7943065,8.96337462 35.7943065,8.68328508 C35.7943065,8.45013544 35.8125801,8.24001293 35.8493448,8.05313896 L36.5787657,3.86552353 L38.1885822,3.86552353 L37.5557503,7.56292691 C37.5372592,7.67496272 37.5213785,7.78699854 37.5074558,7.89903436 C37.4937506,8.01107017 37.4867892,8.12310599 37.4867892,8.23514181 C37.4867892,8.5340516 37.5646696,8.79775646 37.7208653,9.0264778 C37.8766259,9.25542055 38.1611718,9.36967052 38.5738505,9.36967052 C38.8307685,9.36967052 39.0624515,9.31830232 39.2688996,9.21556592 C39.4753477,9.11282951 39.6541679,8.97533101 39.8055776,8.80240616 C39.9567699,8.62970273 40.0807692,8.4359649 40.1771407,8.22119269 C40.2732946,8.00642047 40.3398627,7.78699854 40.3766274,7.56292691 L41.023382,3.86552353 L42.6331985,3.86552353 L41.7795607,8.7410743 C41.3849381,9.80807154 40.2071616,10.8748474 37.9547237,10.7701182" id="Fill-18"></path>
                    <path d="M44.2827383,7.66641612 C44.2827383,8.15994939 44.4224008,8.57421622 44.7023783,8.90921659 C44.9821383,9.24421697 45.3835048,9.41160645 45.9064776,9.41160645 C46.2275707,9.41160645 46.5301727,9.34186084 46.8147186,9.20214819 C47.0988295,9.06265695 47.3444353,8.87201893 47.5508834,8.63001271 C47.7573315,8.38800649 47.9200535,8.10658846 48.0392669,7.78531579 C48.1584803,7.46426453 48.2183046,7.1268286 48.2183046,6.77300797 C48.2183046,6.2613187 48.0668948,5.84240216 47.7640753,5.5167012 C47.4614733,5.19100024 47.0531455,5.02803905 46.539527,5.02803905 C46.1999428,5.02803905 45.8903794,5.09778467 45.6106194,5.2372759 C45.3306419,5.37698855 45.092215,5.56563384 44.8951212,5.80276894 C44.69781,6.04012545 44.5464002,6.31932934 44.4408919,6.64038059 C44.3353837,6.96143185 44.2827383,7.30351749 44.2827383,7.66641612 L44.2827383,7.66641612 Z M49.4291476,0.0134398698 L51.0528869,0.0134398698 C51.0528869,0.0134398698 50.0550182,6.85094593 49.7998405,7.86458224 C49.0510583,10.8368526 46.842129,10.7987693 45.4248379,10.7560363 C45.0030225,10.7434156 44.6199296,10.6860692 44.275777,10.5461352 C43.9318419,10.4059797 43.6381591,10.2078136 43.3951638,9.95075115 C43.151951,9.69413156 42.9639941,9.38835791 42.8310754,9.03343022 C42.6979393,8.67872394 42.6313712,8.28659858 42.6313712,7.85705414 C42.6313712,7.27827622 42.7209988,6.73647455 42.899819,6.23231338 C43.0786391,5.7281522 43.3285958,5.2870942 43.6496889,4.90891796 C43.970782,4.53074173 44.3536573,4.23205335 44.7987498,4.01263143 C45.2436248,3.7932095 45.7320083,3.68338783 46.2643354,3.68338783 C46.869757,3.68338783 47.3581405,3.79675214 47.7297035,4.02325933 C48.1012666,4.24976653 48.3834195,4.56107554 48.5759449,4.95718636 L48.6035728,4.95718636 L49.4291476,0.0134398698 Z" id="Fill-20"></path>
                </g>
            </g>
        </g>
    </g>
</svg>