<?xml version="1.0" encoding="UTF-8"?>
<svg width="117px" height="35px" viewBox="0 0 117 35" version="1.1" xmlns="http://www.w3.org/2000/svg" xmlns:xlink="http://www.w3.org/1999/xlink">
    <title>Storm Logo - White</title>
    <g id="⚡️-Storm-–-Standalone" stroke="none" stroke-width="1" fill="none" fill-rule="evenodd">
        <g id="Logo/Storm/Light-Copy-3" transform="translate(0.000000, -3.000000)">
            <path d="M61.324723,12.348989 C62.6770284,14.0901864 63.5402822,15.7300608 63.9144845,17.2686121 C64.312671,18.9057756 64.3278669,20.8476594 64.1065703,22.5743549 C64.0343861,23.1375814 63.6492927,24.8926673 62.7614597,26.5032993 C61.8041114,28.2400402 60.3135717,29.8394494 59.4744362,30.4745243 C58.204538,31.4356091 56.6463152,32.2883333 54.8417022,32.7771071 C53.8562468,33.0440146 52.2149898,33.1243439 49.917931,33.0180951 L49.917931,33.0180951 L57.6401872,25.9819806 L39.6666667,37.9852941 L61.8234839,18.0734901 L55.4817234,19.2953784 Z M64.3080808,3.01470588 L41.6071666,23.4505924 L47.8086646,22.0665186 L42.3122697,29.0347538 C41.24587,27.6682364 40.5408961,26.6020018 40.197348,25.8360499 C39.3942488,24.0455137 39.0656566,21.969095 39.0656566,20.5 C39.0656566,18.5109727 39.4132836,16.5195144 40.523487,14.5653469 C42.331645,11.3826474 45.1719408,9.04270774 48.7342683,8.16274386 C50.5896889,7.70441904 52.4816279,7.70441904 54.4100853,8.16274386 L46.3214957,15.3833419 L64.3080808,3.01470588 Z" id="Combined-Shape" fill="#359EEA"></path>
            <text id="ST" font-family="AvenirNextLTPro-Bold, Avenir Next LT Pro" font-size="33.6" font-weight="bold" letter-spacing="-0.731769204" fill="#FFFFFF">
                <tspan x="0" y="32.3161765">ST</tspan>
            </text>
            <text id="RM" font-family="AvenirNextLTPro-Bold, Avenir Next LT Pro" font-size="33.6" font-weight="bold" line-spacing="33.6" letter-spacing="-0.525" fill="#FFFFFF">
                <tspan x="65.510101" y="25.0833333">RM</tspan>
            </text>
        </g>
    </g>
</svg>