<?xml version="1.0" encoding="UTF-8"?>
<svg width="19px" height="22px" viewBox="0 0 19 22" version="1.1" xmlns="http://www.w3.org/2000/svg" xmlns:xlink="http://www.w3.org/1999/xlink">
    <title>icon-racing</title>
    <defs>
        <polygon id="path-1" points="0 0 17.94 0 17.94 21.62 0 21.62"></polygon>
    </defs>
    <g id="⚡️-Storm-–-Standalone" stroke="none" stroke-width="1" fill="none" fill-rule="evenodd">
        <g id="Document---Punter-STORM-Report" transform="translate(-746.000000, -164.000000)">
            <g id="Group-4" transform="translate(713.000000, 155.000000)">
                <g id="Group" transform="translate(31.000000, 8.000000)">
                    <g id="Group-3" transform="translate(2.760000, 0.920000)">
                        <mask id="mask-2" fill="white">
                            <use xlink:href="#path-1"></use>
                        </mask>
                        <g id="Clip-2"></g>
                        <path d="M11.7137962,20.5370967 C11.7598749,20.2938144 11.8534077,20.0301166 11.9058595,19.7674786 C11.9641799,19.4759916 12.0033354,19.2196212 12.0411611,18.9121887 C12.1049377,18.3934108 12.0951259,17.565864 11.9723411,17.0791152 C11.8221843,16.4841589 11.696511,16.1417019 11.3867522,15.6924662 C10.5079561,14.4179879 9.8295221,13.0212463 9.87399605,11.3110813 C9.88875957,10.7416561 10.0679391,10.1611244 10.3195608,9.77645364 C10.5087356,9.4872708 11.022937,8.9429158 11.3568584,8.87867343 C12.1025535,9.79880482 12.6184055,10.4046371 13.6538232,10.9448445 C14.1627977,11.2103396 14.375264,11.1691397 14.7490286,11.2913569 C15.057366,12.6375894 15.8595935,13.0230437 16.9903322,12.4978139 C17.4010972,12.3069763 17.450798,12.3192809 17.6944419,11.956777 C18.0463821,11.4332063 17.9931968,10.4047754 17.7046663,9.86701049 C17.5527213,9.58377261 17.3736334,9.34638922 17.1978926,9.09375172 C16.8897844,8.6508757 15.9026461,5.24183636 14.7968037,3.87168579 C14.6966685,3.74757911 14.5803944,3.67702311 14.5449986,3.46807411 C14.5135,3.28221365 14.491584,3.10340419 14.4701265,2.91758981 C14.3631139,1.98861012 14.3469291,1.48877314 14.5530681,0.619427328 C14.3143301,0.741506265 13.7511615,1.14806738 13.6302107,1.3868794 C13.6279183,1.13981818 13.7503362,0.185169184 13.8709661,0.0862248739 C13.8646389,-0.0163140595 13.9023271,0.0323516096 13.8517093,0 C13.7690428,0.0800955804 13.631036,0.146503941 13.5238859,0.223650087 C13.409675,0.305957743 13.3113738,0.381490917 13.2025731,0.459743101 C12.974839,0.6234828 12.7976309,0.746483435 12.5811757,0.922251297 C11.57744,1.73744734 11.726955,1.89095619 11.553369,2.09220901 C11.1684631,2.04160777 10.830461,1.94178785 10.4030526,1.90717808 C7.92035177,1.70620177 5.65626098,2.3686724 3.79569105,3.97620637 C3.69674797,4.06169389 3.51894388,4.20570924 3.452829,4.30778733 C3.86111819,4.27469836 4.92225743,3.9455599 5.25746263,4.16842655 C5.02913246,4.3600937 4.675129,4.53784322 4.42951359,4.71190594 C3.97940972,5.03085963 3.28483668,5.52134137 2.89291574,5.86541133 C1.97844883,6.66802619 1.7061949,6.91186147 0.912311991,7.92388618 C0.624606807,8.29053776 0.0961921076,9.17449249 0,9.70147348 C0.298525649,9.59745983 1.21125029,8.86724437 1.86680546,8.90263758 L1.47910266,9.94106895 C0.564085558,12.9582483 4.00756127,15.2726326 6.23708158,16.4721308 C7.91274076,17.373736 10.6454586,18.6219459 11.7137962,20.5370967 L11.7137962,20.5370967 Z M11.5794115,21.62 C10.7581565,19.4065416 7.6842272,18.0156528 5.86139134,17.0349658 C4.24721625,16.1664495 2.49356719,15.133871 1.65080879,13.5412685 C1.49693809,13.2504727 1.36314945,12.9640089 1.23202008,12.6484655 C1.10121165,12.3337516 0.993282087,11.9288956 0.8066749,11.7181493 C0.543453313,13.2952212 0.491368359,14.2772446 1.78964087,15.5649032 C3.40344916,17.1654783 7.5023425,18.4490814 10.1323576,20.3867216 L11.5794115,21.62 Z" id="Fill-1" fill="#5B6B81" mask="url(#mask-2)"></path>
                    </g>
                </g>
            </g>
        </g>
    </g>
</svg>