<?xml version="1.0" encoding="UTF-8"?>
<svg width="23px" height="23px" viewBox="0 0 23 23" version="1.1" xmlns="http://www.w3.org/2000/svg" xmlns:xlink="http://www.w3.org/1999/xlink">
    <title>Icon-soccer</title>
    <g id="⚡️-Storm-–-Standalone" stroke="none" stroke-width="1" fill="none" fill-rule="evenodd">
        <g id="Document---Punter-STORM-Report" transform="translate(-910.000000, -164.000000)" fill="#5B6B81" fill-rule="nonzero" stroke="#5B6B81" stroke-width="0.807692308">
            <g id="Group-4" transform="translate(713.000000, 155.000000)">
                <g id="Icon-soccer" transform="translate(198.000000, 10.000000)">
                    <path d="M10.507252,0 C12.1117306,0 13.7385754,0.369152766 15.2652452,1.14601584 C20.4310784,3.77847114 22.4860291,10.099934 19.8535501,15.2648806 C17.9987392,18.9056492 14.3136885,21 10.4908712,21 C8.88723257,21 7.26038782,20.6316663 5.73371799,19.8539842 C0.567905787,17.2213189 -1.48538586,10.899856 1.14625313,5.73574943 C3.00022401,2.09598884 6.68611468,0 10.507252,0 Z M10.5071491,1.61125375 C10.1552138,1.61125375 9.80655473,1.63176317 9.45955472,1.67277991 L9.45955472,1.67277991 L7.22819535,4.08871655 L3.96484539,4.47427097 C3.41848261,5.0673767 2.95169273,5.73677847 2.57926047,6.46607464 C2.20680722,7.19780691 1.93938221,7.96566063 1.78105335,8.75810632 L1.78105335,8.75810632 L3.3897742,11.6276611 L2.74743672,14.8523401 C3.01977807,15.3388036 3.33643159,15.7973779 3.69821632,16.2280631 C4.38818414,17.0475789 5.21180251,17.7268301 6.15029651,18.2534891 L6.15029651,18.2534891 L9.37269446,17.6103384 L12.239755,19.2190448 C13.2380809,19.0172267 14.2003481,18.6472549 15.0814043,18.1189578 C15.6015158,17.8056042 16.0855055,17.4430037 16.5268631,17.0369315 L16.5268631,17.0369315 L16.912421,13.7719309 L19.3300595,11.5389116 C19.3456465,11.4051782 19.3579523,11.2722933 19.3677144,11.1364158 C19.4497444,9.99039992 19.3094575,8.8524904 18.951789,7.75486049 C18.8435077,7.42424427 18.7179845,7.10104134 18.5736025,6.78848584 L18.5736025,6.78848584 L15.5933464,5.41440088 L14.219249,2.42913147 C13.6786195,2.18056552 13.116695,1.98614815 12.5432619,1.8499703 C11.8771302,1.69164707 11.1929587,1.61125375 10.5071491,1.61125375 Z M8.79923825,7.38473539 L12.956749,8.04338474 L13.6154883,12.200081 L9.86491449,14.1106744 L6.88780856,11.1361154 L8.79923825,7.38473539 Z" id="Combined-Shape-Copy-5"></path>
                </g>
            </g>
        </g>
    </g>
</svg>