<?xml version="1.0" encoding="UTF-8"?>
<svg width="24px" height="17px" viewBox="0 0 24 17" version="1.1" xmlns="http://www.w3.org/2000/svg" xmlns:xlink="http://www.w3.org/1999/xlink">
    <title>High Roller</title>
    <g id="🔗-Symbols" stroke="none" stroke-width="1" fill="none" fill-rule="evenodd">
        <g id="High-Roller" transform="translate(0.000000, -0.046875)" fill="#A3D333" fill-rule="nonzero">
            <g id="Icons/bookie/punter-status/High-Roller">
                <path d="M22.7145627,2.51008797 C22.0074138,2.51008797 21.4288374,3.07487584 21.4288374,3.76517212 C21.4288374,3.9573573 21.4716949,4.14169737 21.5533916,4.30512606 L19.3462298,6.45968718 C19.2524782,6.55120457 19.1239056,6.59826855 18.9899639,6.58127304 C18.8573731,6.56035497 18.7368372,6.48452781 18.6725509,6.37209235 L17.5153981,4.3927075 C17.4470935,4.28027205 17.330576,4.20444488 17.1979851,4.18744937 C17.0653943,4.17045352 16.9328034,4.21228966 16.8377078,4.30511267 L15.1635905,5.94063793 C15.0604651,6.04130572 14.9198376,6.08314186 14.777873,6.05830123 C14.6359083,6.02953905 14.5247462,5.94063793 14.4698337,5.81120696 L12.8707,2.17547919 C13.1278451,1.94930299 13.2858693,1.61852305 13.2858693,1.25508415 C13.2858693,0.564787867 12.7072929,0 12.000144,0 C11.2929951,0 10.7144187,0.564787867 10.7144187,1.25508415 C10.7144187,1.61460719 10.8684383,1.94538043 11.129588,2.17547919 L9.53179142,5.81120696 C9.47554179,5.94063793 9.36437969,6.02823276 9.22241505,6.05830123 C9.0804504,6.08314152 8.93982291,6.04130538 8.83669746,5.94063793 L7.1612431,4.30511267 C7.06749144,4.21359528 6.93356343,4.17175914 6.80096572,4.18744937 C6.66837487,4.20444522 6.5518573,4.27896676 6.48355272,4.3927075 L5.32639994,6.37209235 C5.26211368,6.48452781 5.14157778,6.56035497 5.00898693,6.58127304 C4.87639608,6.594347 4.74782355,6.55251086 4.65272102,6.45968718 L2.4468964,4.30512606 C2.5285931,4.14170406 2.57145061,3.95735061 2.57145061,3.76517212 C2.57145061,3.07487584 1.99287422,2.51008797 1.28572531,2.51008797 C0.578576388,2.51008797 0,3.07487584 0,3.76517212 C0,4.42146399 0.522313048,4.96141793 1.18259299,5.01242455 L3.86118738,14.3000473 C3.97770495,15.9774086 8.00636577,16.734375 12,16.734375 C15.9936342,16.734375 20.0222402,15.9774086 20.1388126,14.3000473 L22.817407,5.01242455 C23.477687,4.96143801 24,4.42149746 24,3.76517212 C24,3.07487584 23.4214236,2.51008797 22.7142747,2.51008797 L22.7145627,2.51008797 Z M12.0001851,15.8976522 C7.14940071,15.8976522 4.71440841,14.8269148 4.71440841,14.2242067 C4.71440841,13.6214986 7.14926357,12.5507612 12.0001851,12.5507612 C16.8511067,12.5507612 19.2859619,13.6214986 19.2859619,14.2242067 C19.2859619,14.8269148 16.8511067,15.8976522 12.0001851,15.8976522 Z" id="Shape"></path>
            </g>
        </g>
    </g>
</svg>