<?xml version="1.0" encoding="UTF-8"?>
<svg width="24px" height="24px" viewBox="0 0 24 24" version="1.1" xmlns="http://www.w3.org/2000/svg" xmlns:xlink="http://www.w3.org/1999/xlink">
    <title>Newbie</title>
    <g id="🔗-Symbols" stroke="none" stroke-width="1" fill="none" fill-rule="evenodd">
        <g id="Newbie" fill="#79848B" fill-rule="nonzero">
            <g id="np_new_2770964_000000">
                <polygon id="Path" points="23.3744109 9.03053696 23.3744109 14.9695262 14.9693998 14.9695262 14.9693998 23.3745373 9.03041058 23.3745373 9.03041058 14.9695262 0.62539955 14.9695262 0.62539955 9.03053696 9.03041058 9.03053696 9.03041058 0.625525932 14.9693998 0.625525932 14.9693998 9.03053696"></polygon>
                <path d="M22.7361836,9.05518138 L22.7361836,14.2055492 L22.7361836,14.9448186 L23.3680918,14.3129104 L15.9877199,14.3129104 L14.9448186,14.3129104 C14.6041885,14.3129104 14.3129104,14.6041822 14.3129104,14.9448186 L14.3129104,22.3251905 L14.3129104,23.3680918 L14.9448186,22.7361836 L9.79445079,22.7361836 L9.05518138,22.7361836 L9.68708959,23.3680918 L9.68708959,15.9877199 L9.68708959,14.9448186 C9.68708959,14.6041885 9.39581782,14.3129104 9.05518138,14.3129104 L1.67480951,14.3129104 L0.631908205,14.3129104 L1.26381641,14.9448186 L1.26381641,9.79445079 L1.26381641,9.05518138 L0.631908205,9.68708959 L8.01228008,9.68708959 L9.05518138,9.68708959 C9.3958115,9.68708959 9.68708959,9.39581782 9.68708959,9.05518138 L9.68708959,1.67480951 L9.68708959,0.631908205 L9.05518138,1.26381641 L14.2055492,1.26381641 L14.9448186,1.26381641 L14.3129104,0.631908205 L14.3129104,8.01228008 L14.3129104,9.05518138 C14.3129104,9.3958115 14.6041822,9.68708959 14.9448186,9.68708959 L22.3251905,9.68708959 L23.3680918,9.68708959 C24.1826531,9.68708959 24.1826531,8.42327318 23.3680918,8.42327318 L15.9877199,8.42327318 L14.9448186,8.42327318 C15.1533989,8.63185344 15.3681339,8.84658849 15.5767268,9.05518138 L15.5767268,1.67480951 L15.5767268,0.631908205 C15.5767268,0.291278087 15.2854582,0 14.9448186,0 L9.79445079,0 L9.05518138,0 C8.71455127,0 8.42327318,0.291271768 8.42327318,0.631908205 L8.42327318,8.01228008 L8.42327318,9.05518138 C8.63185344,8.84660112 8.84658849,8.63186608 9.05518138,8.42327318 L1.67480951,8.42327318 L0.631908205,8.42327318 C0.291278087,8.42327318 0,8.71454179 0,9.05518138 L0,14.2055492 L0,14.9448186 C0,15.2854487 0.291271768,15.5767268 0.631908205,15.5767268 L8.01228008,15.5767268 L9.05518138,15.5767268 C8.84660112,15.3681466 8.63186608,15.1534115 8.42327318,14.9448186 L8.42327318,22.3251905 L8.42327318,23.3680918 C8.42327318,23.7087219 8.71454179,24 9.05518138,24 L14.2055492,24 L14.9448186,24 C15.2854487,24 15.5767268,23.7087282 15.5767268,23.3680918 L15.5767268,15.9877199 L15.5767268,14.9448186 C15.3681466,15.1533989 15.1534115,15.3681339 14.9448186,15.5767268 L22.3251905,15.5767268 L23.3680918,15.5767268 C23.7087219,15.5767268 24,15.2854582 24,14.9448186 L24,9.79445079 L24,9.05518138 C24,8.24062011 22.7361836,8.24062011 22.7361836,9.05518138 Z" id="Path"></path>
            </g>
        </g>
    </g>
</svg>